<svg xmlns="http://www.w3.org/2000/svg" width="880" height="28" viewBox="0 0 880 28" xmlns:c2pa="http://c2pa.org/manifest"><metadata><c2pa:manifest>AAAWgmp1bWIAAAAeanVtZGMycGEAEQAQgAAAqgA4m3EDYzJwYQAAABZcanVtYgAAAEdqdW1kYzJtYQARABCAAACqADibcQN1cm46YzJwYTpmOTUxYjQ0ZC00Yzc0LTQxOTAtOTU0OC04ZDQ5YTA4YTczNjEAAAADl2p1bWIAAAApanVtZGMyYXMAEQAQgAAAqgA4m3EDYzJwYS5hc3NlcnRpb25zAAAAALxqdW1iAAAARGp1bWRjYm9yABEAEIAAAKoAOJtxE2MycGEuaW5ncmVkaWVudC52MwAAAAAYYzJzaFUQ28+Z2YUqThCdJO3XfOwAAABwY2JvcqNpZGM6Zm9ybWF0bWltYWdlL3N2Zyt4bWxqaW5zdGFuY2VJRHgseG1wOmlpZDowZmZmNDkxOS1jYzBhLTQ4ODMtYWE0OS00M2Q0NzU2NjgyY2FscmVsYXRpb25zaGlwaHBhcmVudE9mAAAB4mp1bWIAAABBanVtZGNib3IAEQAQgAAAqgA4m3ETYzJwYS5hY3Rpb25zLnYyAAAAABhjMnNoXb8EUZXzGgQRYwPHjruVzgAAAZljYm9yomdhY3Rpb25zgqJmYWN0aW9ua2MycGEub3BlbmVkanBhcmFtZXRlcnOha2luZ3JlZGllbnRzgaJjdXJseC1zZWxmI2p1bWJmPWMycGEuYXNzZXJ0aW9ucy9jMnBhLmluZ3JlZGllbnQudjNkaGFzaFgg5MmuMwQ92YIHMLXiQ1BXSQDdyIFxIoGZ6IpXnIcsnOykZmFjdGlvbngdY29tLmFudGhyb3BpYy5jbGF1ZGUucHJvdmlkZWRqcGFyYW1ldGVyc6F4H2NvbS5hbnRocm9waWMub3JpZ2luLWNvbmZpZGVuY2VndW5rbm93bmtkZXNjcmlwdGlvbnhmQ2xhdWRlIHByb3ZpZGVkIHRoaXMgZmlsZSBhdCB0aGUgcmVxdWVzdCBvZiBhIHVzZXIgYW5kIG1heSBoYXZlIGNyZWF0ZWQgb3IgbW9kaWZpZWQgdGhlIGZpbGUgY29udGVudHMubXNvZnR3YXJlQWdlbnShZG5hbWVmQ2xhdWRlcmFsbEFjdGlvbnNJbmNsdWRlZPUAAADIanVtYgAAAEBqdW1kY2JvcgARABCAAACqADibcRNjMnBhLmhhc2guZGF0YQAAAAAYYzJzaOq96Rr/drcNs9hGxbggYucAAACAY2JvcqVjYWxnZnNoYTI1NmNwYWRNAAAAAAAAAAAAAAAAAGRoYXNoWCD90oivey3zUyYaHXtgMrsTuBlx/p+1nWYyY7X0PWE0VGRuYW1lbmp1bWJmIG1hbmlmZXN0amV4Y2x1c2lvbnOBomVzdGFydBiUZmxlbmd0aBkeBAAAAj5qdW1iAAAAJ2p1bWRjMmNsABEAEIAAAKoAOJtxA2MycGEuY2xhaW0udjIAAAACD2Nib3KlY2FsZ2ZzaGEyNTZpc2lnbmF0dXJleE1zZWxmI2p1bWJmPS9jMnBhL3VybjpjMnBhOmY5NTFiNDRkLTRjNzQtNDE5MC05NTQ4LThkNDlhMDhhNzM2MS9jMnBhLnNpZ25hdHVyZWppbnN0YW5jZUlEeCx4bXA6aWlkOjYwMjkyYTAwLTY5OGUtNDUxMS05NzE2LWEwNWI0ZDc5ZTU4NHJjcmVhdGVkX2Fzc2VydGlvbnODomN1cmx4LXNlbGYjanVtYmY9YzJwYS5hc3NlcnRpb25zL2MycGEuaW5ncmVkaWVudC52M2RoYXNoWCDkya4zBD3ZggcwteJDUFdJAN3IgXEigZnoilechyyc7KJjdXJseCpzZWxmI2p1bWJmPWMycGEuYXNzZXJ0aW9ucy9jMnBhLmFjdGlvbnMudjJkaGFzaFggio1cLOIr/DweshBS7Qqh59aVF3hhgEg9QFTGcWxIKHCiY3VybHgpc2VsZiNqdW1iZj1jMnBhLmFzc2VydGlvbnMvYzJwYS5oYXNoLmRhdGFkaGFzaFggsLaqbSmR2x5qcQayG3F6yK2B2NoYLHyxfiOgWpoWHy10Y2xhaW1fZ2VuZXJhdG9yX2luZm+jZG5hbWVvQW50aHJvcGljIEZpbGVzZ3ZlcnNpb25lMS4wLjBrc3BlY1ZlcnNpb25lMi40LjAAABA4anVtYgAAAChqdW1kYzJjcwARABCAAACqADibcQNjMnBhLnNpZ25hdHVyZQAAABAIY2JvctKEWQISogEmGCFZAgowggIGMIIBjaADAgECAhRA5aAK7sI50L64g/oGQgU9Z1UTADAKBggqhkjOPQQDAzBJMRcwFQYDVQQKEw5BbnRocm9waWMsIFBCQzEuMCwGA1UEAxMlQW50aHJvcGljIENvbnRlbnQgQ3JlZGVudGlhbHMgUm9vdCBDQTAeFw0yNjA4MDcxODQzNTZaFw0yODA4MDYxOTQzNTZaMEQxFzAVBgNVBAoTDkFudGhyb3BpYywgUEJDMSkwJwYDVQQDEyBBbnRocm9waWMgQ2xhdWRlIENvbnRlbnQgU2lnbmluZzBZMBMGByqGSM49AgEGCCqGSM49AwEHA0IABJh6CmvLUBgFFNU0vUKlOVtE6djd17L5SuwX0LemFisBM3dkd/3cyjxFA3Qo5S46fX0/ihY0VZ7mfb9KF703t5OjWDBWMA4GA1UdDwEB/wQEAwIHgDAVBgNVHSUEDjAMBgorBgEEAYPoXgIBMAwGA1UdEwEB/wQCMAAwHwYDVR0jBBgwFoAUzlHiBIFOZFsj+OPEz5o+nMHXXMIwCgYIKoZIzj0EAwMDZwAwZAIwMXMdFJ4BetLLVY7ORuE9noqbbAZOZn/aArXyTwFAZfKrPzxF2vPoJNf1+UCdg1XGAjBwX1zd9WGqYkqmL5SFqw1QySjr1zJfpJM9+1rdDwSPLMOPOjKuiXjoU/pUUeG9RwmhY3BhZFkNngAAAAAAAAAAAAAAAAAAAAAAAAAAAAAAAAAAAAAAAAAAAAAAAAAAAAAAAAAAAAAAAAAAAAAAAAAAAAAAAAAAAAAAAAAAAAAAAAAAAAAAAAAAAAAAAAAAAAAAAAAAAAAAAAAAAAAAAAAAAAAAAAAAAAAAAAAAAAAAAAAAAAAAAAAAAAAAAAAAAAAAAAAAAAAAAAAAAAAAAAAAAAAAAAAAAAAAAAAAAAAAAAAAAAAAAAAAAAAAAAAAAAAAAAAAAAAAAAAAAAAAAAAAAAAAAAAAAAAAAAAAAAAAAAAAAAAAAAAAAAAAAAAAAAAAAAAAAAAAAAAAAAAAAAAAAAAAAAAAAAAAAAAAAAAAAAAAAAAAAAAAAAAAAAAAAAAAAAAAAAAAAAAAAAAAAAAAAAAAAAAAAAAAAAAAAAAAAAAAAAAAAAAAAAAAAAAAAAAAAAAAAAAAAAAAAAAAAAAAAAAAAAAAAAAAAAAAAAAAAAAAAAAAAAAAAAAAAAAAAAAAAAAAAAAAAAAAAAAAAAAAAAAAAAAAAAAAAAAAAAAAAAAAAAAAAAAAAAAAAAAAAAAAAAAAAAAAAAAAAAAAAAAAAAAAAAAAAAAAAAAAAAAAAAAAAAAAAAAAAAAAAAAAAAAAAAAAAAAAAAAAAAAAAAAAAAAAAAAAAAAAAAAAAAAAAAAAAAAAAAAAAAAAAAAAAAAAAAAAAAAAAAAAAAAAAAAAAAAAAAAAAAAAAAAAAAAAAAAAAAAAAAAAAAAAAAAAAAAAAAAAAAAAAAAAAAAAAAAAAAAAAAAAAAAAAAAAAAAAAAAAAAAAAAAAAAAAAAAAAAAAAAAAAAAAAAAAAAAAAAAAAAAAAAAAAAAAAAAAAAAAAAAAAAAAAAAAAAAAAAAAAAAAAAAAAAAAAAAAAAAAAAAAAAAAAAAAAAAAAAAAAAAAAAAAAAAAAAAAAAAAAAAAAAAAAAAAAAAAAAAAAAAAAAAAAAAAAAAAAAAAAAAAAAAAAAAAAAAAAAAAAAAAAAAAAAAAAAAAAAAAAAAAAAAAAAAAAAAAAAAAAAAAAAAAAAAAAAAAAAAAAAAAAAAAAAAAAAAAAAAAAAAAAAAAAAAAAAAAAAAAAAAAAAAAAAAAAAAAAAAAAAAAAAAAAAAAAAAAAAAAAAAAAAAAAAAAAAAAAAAAAAAAAAAAAAAAAAAAAAAAAAAAAAAAAAAAAAAAAAAAAAAAAAAAAAAAAAAAAAAAAAAAAAAAAAAAAAAAAAAAAAAAAAAAAAAAAAAAAAAAAAAAAAAAAAAAAAAAAAAAAAAAAAAAAAAAAAAAAAAAAAAAAAAAAAAAAAAAAAAAAAAAAAAAAAAAAAAAAAAAAAAAAAAAAAAAAAAAAAAAAAAAAAAAAAAAAAAAAAAAAAAAAAAAAAAAAAAAAAAAAAAAAAAAAAAAAAAAAAAAAAAAAAAAAAAAAAAAAAAAAAAAAAAAAAAAAAAAAAAAAAAAAAAAAAAAAAAAAAAAAAAAAAAAAAAAAAAAAAAAAAAAAAAAAAAAAAAAAAAAAAAAAAAAAAAAAAAAAAAAAAAAAAAAAAAAAAAAAAAAAAAAAAAAAAAAAAAAAAAAAAAAAAAAAAAAAAAAAAAAAAAAAAAAAAAAAAAAAAAAAAAAAAAAAAAAAAAAAAAAAAAAAAAAAAAAAAAAAAAAAAAAAAAAAAAAAAAAAAAAAAAAAAAAAAAAAAAAAAAAAAAAAAAAAAAAAAAAAAAAAAAAAAAAAAAAAAAAAAAAAAAAAAAAAAAAAAAAAAAAAAAAAAAAAAAAAAAAAAAAAAAAAAAAAAAAAAAAAAAAAAAAAAAAAAAAAAAAAAAAAAAAAAAAAAAAAAAAAAAAAAAAAAAAAAAAAAAAAAAAAAAAAAAAAAAAAAAAAAAAAAAAAAAAAAAAAAAAAAAAAAAAAAAAAAAAAAAAAAAAAAAAAAAAAAAAAAAAAAAAAAAAAAAAAAAAAAAAAAAAAAAAAAAAAAAAAAAAAAAAAAAAAAAAAAAAAAAAAAAAAAAAAAAAAAAAAAAAAAAAAAAAAAAAAAAAAAAAAAAAAAAAAAAAAAAAAAAAAAAAAAAAAAAAAAAAAAAAAAAAAAAAAAAAAAAAAAAAAAAAAAAAAAAAAAAAAAAAAAAAAAAAAAAAAAAAAAAAAAAAAAAAAAAAAAAAAAAAAAAAAAAAAAAAAAAAAAAAAAAAAAAAAAAAAAAAAAAAAAAAAAAAAAAAAAAAAAAAAAAAAAAAAAAAAAAAAAAAAAAAAAAAAAAAAAAAAAAAAAAAAAAAAAAAAAAAAAAAAAAAAAAAAAAAAAAAAAAAAAAAAAAAAAAAAAAAAAAAAAAAAAAAAAAAAAAAAAAAAAAAAAAAAAAAAAAAAAAAAAAAAAAAAAAAAAAAAAAAAAAAAAAAAAAAAAAAAAAAAAAAAAAAAAAAAAAAAAAAAAAAAAAAAAAAAAAAAAAAAAAAAAAAAAAAAAAAAAAAAAAAAAAAAAAAAAAAAAAAAAAAAAAAAAAAAAAAAAAAAAAAAAAAAAAAAAAAAAAAAAAAAAAAAAAAAAAAAAAAAAAAAAAAAAAAAAAAAAAAAAAAAAAAAAAAAAAAAAAAAAAAAAAAAAAAAAAAAAAAAAAAAAAAAAAAAAAAAAAAAAAAAAAAAAAAAAAAAAAAAAAAAAAAAAAAAAAAAAAAAAAAAAAAAAAAAAAAAAAAAAAAAAAAAAAAAAAAAAAAAAAAAAAAAAAAAAAAAAAAAAAAAAAAAAAAAAAAAAAAAAAAAAAAAAAAAAAAAAAAAAAAAAAAAAAAAAAAAAAAAAAAAAAAAAAAAAAAAAAAAAAAAAAAAAAAAAAAAAAAAAAAAAAAAAAAAAAAAAAAAAAAAAAAAAAAAAAAAAAAAAAAAAAAAAAAAAAAAAAAAAAAAAAAAAAAAAAAAAAAAAAAAAAAAAAAAAAAAAAAAAAAAAAAAAAAAAAAAAAAAAAAAAAAAAAAAAAAAAAAAAAAAAAAAAAAAAAAAAAAAAAAAAAAAAAAAAAAAAAAAAAAAAAAAAAAAAAAAAAAAAAAAAAAAAAAAAAAAAAAAAAAAAAAAAAAAAAAAAAAAAAAAAAAAAAAAAAAAAAAAAAAAAAAAAAAAAAAAAAAAAAAAAAAAAAAAAAAAAAAAAAAAAAAAAAAAAAAAAAAAAAAAAAAAAAAAAAAAAAAAAAAAAAAAAAAAAAAAAAAAAAAAAAAAAAAAAAAAAAAAAAAAAAAAAAAAAAAAAAAAAAAAAAAAAAAAAAAAAAAAAAAAAAAAAAAAAAAAAAAAAAAAAAAAAAAAAAAAAAAAAAAAAAAAAAAAAAAAAAAAAAAAAAAAAAAAAAAAAAAAAAAAAAAAAAAAAAAAAAAAAAAAAAAAAAAAAAAAAAAAAAAAAAAAAAAAAAAAAAAAAAAAAAAAAAAAAAAAAAAAAAAAAAAAAAAAAAAAAAAAAAAAAAAAAAAAAAAAAAAAAAAAAAAAAAAAAAAAAAAAAAAAAAAAAAAAAAAAAAAAAAAAAAAAAAAAAAAAAAAAAAAAAAAAAAAAAAAAAAAAAAAAAAAAAAAAAAAAAAAAAAAAAAAAAAAAAAAAAAAAAAAAAAAAAAAAAAAAAAAAAAAAAAAAAAAAAAAAAAAAAAAAAAAAAAAAAAAAAAAAAAAAAAAAAAAAAAAAAAAAAAAAAAAAAAAAAAAAAAAAAAAAAAAAAAAAAAAAAAAAAAAAAAAAAAAAAAAAAAAAAAAAAAAAAAAAAAAAAAAAAAAAAAAAAAAAAAAAAAAAAAAAAAAAAAAAAAAAAAAAAAAAAAAAAAAAAAAAAAAAAAAAAAAAAAAAAAAAAAAAAAAAAAAAAAAAAAAAAAAAAAAAAAAAAAAAAAAAAAAAAAAAAAAAAAAAAAAAAAAAAAAAAAAAAAAAAAAAAAAAAAAAAAAAAAAAAAAAAAAAAAAAAAAAAAAAAAAAAAAAAAAAAAAAAAAAAAAAAAAAAAAAAAAAAAAAAAAAAAAAAAAAAAAAAAAAAAAAAAAAAAAAAAAAAAAAAAAAAAAAAAAAAAAAAAAAAAAAAAAAAAAAAAAAAAAAAAAAAAAAAAAAAAAAAAAAAAAAAAAAAAAAAAAAAAAAAAAAAAAAAAAAAAAAAAAAAAAAAAAAAAAAAAAAAAAAAAAAAAAAAAAAAAAAAAAAAAAAAAAAAAAAAAAAAAAAAAAAAAAAAAAAAAAAAAAAAAAAAAAAAAAAAAAAAAAAAAAAAAAAAAAAAAAAAAAAAAAAAAAAAAAAAAAAAAAAAAAAAAAAAAAAAAAAAAAAAAAAAAAAAAAAAAAAAAAAAAAAAAAAAAAAAAAAAAAAAAAAAAAAAAAAAAAAAAAAAAAAAAAAAAAAAAAAAAAAAAAAAAAAAAAAAAAAAAAAAAAAAAAAAAAAAAAAAAAAAAAAAAAAAAAAAAAAAAAAAAAAAAAAAAAAAAAAAAAAAAAAAAAAAAAAAAAAAAAAAAAAAAAAAAAAAAAAAAAAAAAAAAAAAAAAAAAAAAAAAAAAAAAAAAAAAAAAAAAAAAAAAAAAAAAAAAAAAAAAAAAAAAAAAAAAAAAAAAAAAAAAAAAAAAAAAAAAAAAAAAAAAAAAAAAAAAAAAAAAAAAAAAAAAAAAAAAAAAAAAAAAAAAAAAAAAAAAAAAAAAAAAAAAAAAAAAAAAAAAAAAAAAAAAAAAAAAAPZYQDJB4SBaM+cPHS6PFOsR4zo/t8Tq5F2pDFVaXIknM1Rbx3OQ2OuSx4Mx6VFatt1NKr9OoCxF0iYSoPna6ZSHb2s=</c2pa:manifest></metadata><defs><linearGradient id="fade" x1="0" x2="1"><stop offset="0" stop-color="#fff" stop-opacity="0"/><stop offset=".15" stop-color="#fff"/><stop offset=".85" stop-color="#fff"/><stop offset="1" stop-color="#fff" stop-opacity="0"/></linearGradient><mask id="m"><rect width="880" height="28" fill="url(#fade)"/></mask><linearGradient id="lg" x1="0" x2="880" gradientUnits="userSpaceOnUse"><stop offset="0" stop-color="#6d28d9"/><stop offset=".5" stop-color="#a78bfa"/><stop offset="1" stop-color="#6d28d9"/></linearGradient></defs><g mask="url(#m)"><path d="M-110.0,14.00 L-106.0,15.13 L-102.0,16.21 L-98.0,17.17 L-94.0,17.96 L-90.0,18.55 L-86.0,18.90 L-82.0,19.00 L-78.0,18.84 L-74.0,18.42 L-70.0,17.78 L-66.0,16.94 L-62.0,15.95 L-58.0,14.85 L-54.0,13.71 L-50.0,12.59 L-46.0,11.54 L-42.0,10.62 L-38.0,9.87 L-34.0,9.34 L-30.0,9.05 L-26.0,9.02 L-22.0,9.24 L-18.0,9.72 L-14.0,10.41 L-10.0,11.30 L-6.0,12.32 L-2.0,13.43 L2.0,14.57 L6.0,15.68 L10.0,16.70 L14.0,17.59 L18.0,18.28 L22.0,18.76 L26.0,18.98 L30.0,18.95 L34.0,18.66 L38.0,18.13 L42.0,17.38 L46.0,16.46 L50.0,15.41 L54.0,14.29 L58.0,13.15 L62.0,12.05 L66.0,11.06 L70.0,10.22 L74.0,9.58 L78.0,9.16 L82.0,9.00 L86.0,9.10 L90.0,9.45 L94.0,10.04 L98.0,10.83 L102.0,11.79 L106.0,12.87 L110.0,14.00 L114.0,15.13 L118.0,16.21 L122.0,17.17 L126.0,17.96 L130.0,18.55 L134.0,18.90 L138.0,19.00 L142.0,18.84 L146.0,18.42 L150.0,17.78 L154.0,16.94 L158.0,15.95 L162.0,14.85 L166.0,13.71 L170.0,12.59 L174.0,11.54 L178.0,10.62 L182.0,9.87 L186.0,9.34 L190.0,9.05 L194.0,9.02 L198.0,9.24 L202.0,9.72 L206.0,10.41 L210.0,11.30 L214.0,12.32 L218.0,13.43 L222.0,14.57 L226.0,15.68 L230.0,16.70 L234.0,17.59 L238.0,18.28 L242.0,18.76 L246.0,18.98 L250.0,18.95 L254.0,18.66 L258.0,18.13 L262.0,17.38 L266.0,16.46 L270.0,15.41 L274.0,14.29 L278.0,13.15 L282.0,12.05 L286.0,11.06 L290.0,10.22 L294.0,9.58 L298.0,9.16 L302.0,9.00 L306.0,9.10 L310.0,9.45 L314.0,10.04 L318.0,10.83 L322.0,11.79 L326.0,12.87 L330.0,14.00 L334.0,15.13 L338.0,16.21 L342.0,17.17 L346.0,17.96 L350.0,18.55 L354.0,18.90 L358.0,19.00 L362.0,18.84 L366.0,18.42 L370.0,17.78 L374.0,16.94 L378.0,15.95 L382.0,14.85 L386.0,13.71 L390.0,12.59 L394.0,11.54 L398.0,10.62 L402.0,9.87 L406.0,9.34 L410.0,9.05 L414.0,9.02 L418.0,9.24 L422.0,9.72 L426.0,10.41 L430.0,11.30 L434.0,12.32 L438.0,13.43 L442.0,14.57 L446.0,15.68 L450.0,16.70 L454.0,17.59 L458.0,18.28 L462.0,18.76 L466.0,18.98 L470.0,18.95 L474.0,18.66 L478.0,18.13 L482.0,17.38 L486.0,16.46 L490.0,15.41 L494.0,14.29 L498.0,13.15 L502.0,12.05 L506.0,11.06 L510.0,10.22 L514.0,9.58 L518.0,9.16 L522.0,9.00 L526.0,9.10 L530.0,9.45 L534.0,10.04 L538.0,10.83 L542.0,11.79 L546.0,12.87 L550.0,14.00 L554.0,15.13 L558.0,16.21 L562.0,17.17 L566.0,17.96 L570.0,18.55 L574.0,18.90 L578.0,19.00 L582.0,18.84 L586.0,18.42 L590.0,17.78 L594.0,16.94 L598.0,15.95 L602.0,14.85 L606.0,13.71 L610.0,12.59 L614.0,11.54 L618.0,10.62 L622.0,9.87 L626.0,9.34 L630.0,9.05 L634.0,9.02 L638.0,9.24 L642.0,9.72 L646.0,10.41 L650.0,11.30 L654.0,12.32 L658.0,13.43 L662.0,14.57 L666.0,15.68 L670.0,16.70 L674.0,17.59 L678.0,18.28 L682.0,18.76 L686.0,18.98 L690.0,18.95 L694.0,18.66 L698.0,18.13 L702.0,17.38 L706.0,16.46 L710.0,15.41 L714.0,14.29 L718.0,13.15 L722.0,12.05 L726.0,11.06 L730.0,10.22 L734.0,9.58 L738.0,9.16 L742.0,9.00 L746.0,9.10 L750.0,9.45 L754.0,10.04 L758.0,10.83 L762.0,11.79 L766.0,12.87 L770.0,14.00 L774.0,15.13 L778.0,16.21 L782.0,17.17 L786.0,17.96 L790.0,18.55 L794.0,18.90 L798.0,19.00 L802.0,18.84 L806.0,18.42 L810.0,17.78 L814.0,16.94 L818.0,15.95 L822.0,14.85 L826.0,13.71 L830.0,12.59 L834.0,11.54 L838.0,10.62 L842.0,9.87 L846.0,9.34 L850.0,9.05 L854.0,9.02 L858.0,9.24 L862.0,9.72 L866.0,10.41 L870.0,11.30 L874.0,12.32 L878.0,13.43 L882.0,14.57 L886.0,15.68 L890.0,16.70 L894.0,17.59 L898.0,18.28 L902.0,18.76 L906.0,18.98 L910.0,18.95 L914.0,18.66 L918.0,18.13 L922.0,17.38 L926.0,16.46 L930.0,15.41 L934.0,14.29 L938.0,13.15 L942.0,12.05 L946.0,11.06 L950.0,10.22 L954.0,9.58 L958.0,9.16 L962.0,9.00 L966.0,9.10 L970.0,9.45 L974.0,10.04 L978.0,10.83 L982.0,11.79 L986.0,12.87 L990.0,14.00 L994.0,15.13 L998.0,16.21 L1002.0,17.17 L1006.0,17.96 L1010.0,18.55 L1014.0,18.90 L1018.0,19.00 L1022.0,18.84 L1026.0,18.42 L1030.0,17.78 L1034.0,16.94 L1038.0,15.95 L1042.0,14.85 L1046.0,13.71 L1050.0,12.59 L1054.0,11.54 L1058.0,10.62 L1062.0,9.87 L1066.0,9.34 L1070.0,9.05 L1074.0,9.02 L1078.0,9.24 L1082.0,9.72 L1086.0,10.41 L1090.0,11.30 L1094.0,12.32 L1098.0,13.43 L1102.0,14.57 L1106.0,15.68 L1110.0,16.70 L1114.0,17.59 L1118.0,18.28 L1122.0,18.76 L1126.0,18.98 L1130.0,18.95 L1134.0,18.66 L1138.0,18.13 L1142.0,17.38 L1146.0,16.46 L1150.0,15.41 L1154.0,14.29 L1158.0,13.15 L1162.0,12.05 L1166.0,11.06 L1170.0,10.22 L1174.0,9.58 L1178.0,9.16 L1182.0,9.00 L1186.0,9.10 L1190.0,9.45 L1194.0,10.04 L1198.0,10.83 L1202.0,11.79 L1206.0,12.87 L1210.0,14.00 L1214.0,15.13 L1218.0,16.21 L1222.0,17.17 L1226.0,17.96 L1230.0,18.55 L1234.0,18.90 L1238.0,19.00 L1242.0,18.84 L1246.0,18.42 L1250.0,17.78 L1254.0,16.94 L1258.0,15.95 L1262.0,14.85 L1266.0,13.71 L1270.0,12.59 L1274.0,11.54 L1278.0,10.62 L1282.0,9.87 L1286.0,9.34 L1290.0,9.05 L1294.0,9.02 L1298.0,9.24 L1302.0,9.72 L1306.0,10.41 L1310.0,11.30 L1314.0,12.32 L1318.0,13.43 L1322.0,14.57 L1326.0,15.68 L1330.0,16.70 L1334.0,17.59 L1338.0,18.28 L1342.0,18.76 L1346.0,18.98 L1350.0,18.95 L1354.0,18.66 L1358.0,18.13 L1362.0,17.38 L1366.0,16.46 L1370.0,15.41 L1374.0,14.29 L1378.0,13.15 L1382.0,12.05 L1386.0,11.06 L1390.0,10.22 L1394.0,9.58 L1398.0,9.16 L1402.0,9.00 L1406.0,9.10 L1410.0,9.45 L1414.0,10.04 L1418.0,10.83 L1422.0,11.79 L1426.0,12.87 L1430.0,14.00 L1434.0,15.13 L1438.0,16.21 L1442.0,17.17 L1446.0,17.96 L1450.0,18.55 L1454.0,18.90 L1458.0,19.00 L1462.0,18.84 L1466.0,18.42 L1470.0,17.78 L1474.0,16.94 L1478.0,15.95 L1482.0,14.85 L1486.0,13.71 L1490.0,12.59 L1494.0,11.54 L1498.0,10.62 L1502.0,9.87 L1506.0,9.34 L1510.0,9.05 L1514.0,9.02 L1518.0,9.24 L1522.0,9.72 L1526.0,10.41 L1530.0,11.30 L1534.0,12.32 L1538.0,13.43 L1542.0,14.57 L1546.0,15.68 L1550.0,16.70 L1554.0,17.59 L1558.0,18.28 L1562.0,18.76 L1566.0,18.98 L1570.0,18.95 L1574.0,18.66 L1578.0,18.13 L1582.0,17.38 L1586.0,16.46 L1590.0,15.41 L1594.0,14.29 L1598.0,13.15 L1602.0,12.05 L1606.0,11.06 L1610.0,10.22 L1614.0,9.58 L1618.0,9.16 L1622.0,9.00 L1626.0,9.10 L1630.0,9.45 L1634.0,10.04 L1638.0,10.83 L1642.0,11.79 L1646.0,12.87 L1650.0,14.00 L1654.0,15.13 L1658.0,16.21 L1662.0,17.17 L1666.0,17.96 L1670.0,18.55 L1674.0,18.90 L1678.0,19.00 L1682.0,18.84 L1686.0,18.42 L1690.0,17.78 L1694.0,16.94 L1698.0,15.95 L1702.0,14.85 L1706.0,13.71 L1710.0,12.59 L1714.0,11.54 L1718.0,10.62 L1722.0,9.87 L1726.0,9.34 L1730.0,9.05 L1734.0,9.02 L1738.0,9.24 L1742.0,9.72 L1746.0,10.41 L1750.0,11.30 L1754.0,12.32 L1758.0,13.43 L1762.0,14.57 L1766.0,15.68 L1770.0,16.70 L1774.0,17.59 L1778.0,18.28 L1782.0,18.76 L1786.0,18.98 L1790.0,18.95 L1794.0,18.66 L1798.0,18.13 L1802.0,17.38 L1806.0,16.46 L1810.0,15.41 L1814.0,14.29 L1818.0,13.15 L1822.0,12.05 L1826.0,11.06 L1830.0,10.22 L1834.0,9.58 L1838.0,9.16 L1842.0,9.00 L1846.0,9.10 L1850.0,9.45 L1854.0,10.04 L1858.0,10.83 L1862.0,11.79 L1866.0,12.87 L1870.0,14.00" fill="none" stroke="url(#lg)" stroke-width="2" stroke-linecap="round"><animateTransform attributeName="transform" type="translate" from="0 0" to="-110 0" dur="3s" repeatCount="indefinite"/></path></g></svg>